<svg xmlns="http://www.w3.org/2000/svg" xmlns:xlink="http://www.w3.org/1999/xlink" width="227" zoomAndPan="magnify" viewBox="0 0 170.25 83.999999" height="112" preserveAspectRatio="xMidYMid meet" version="1.0"><defs><g/><clipPath id="b5d98e29c5"><path d="M 155 26 L 169.425781 26 L 169.425781 46 L 155 46 Z M 155 26 " clip-rule="nonzero"/></clipPath></defs><path fill="#ffffff" d="M 0 35.785156 L 9.3125 45.191406 C 11.113281 47.007812 14.804688 43.648438 12.640625 41.53125 L 6.746094 35.785156 L 12.828125 30.128906 C 14.679688 28.410156 11.25 24.875 9.40625 26.660156 Z M 0 35.785156 " fill-opacity="1" fill-rule="nonzero"/><g fill="#ffffff" fill-opacity="1"><g transform="translate(41.252233, 72.503783)"><g><path d="M 13.28125 -9.71875 L 10.46875 0 L 9.046875 0 L 6.78125 -7.8125 L 4.453125 0 L 3.03125 0.015625 L 0.328125 -9.71875 L 1.671875 -9.71875 L 3.796875 -1.484375 L 6.125 -9.71875 L 7.546875 -9.71875 L 9.78125 -1.5 L 11.921875 -9.71875 Z M 13.28125 -9.71875 "/></g></g></g><g fill="#ffffff" fill-opacity="1"><g transform="translate(54.84872, 72.503783)"><g><path d="M 8.046875 -4.109375 C 8.046875 -3.867188 8.03125 -3.613281 8 -3.34375 L 1.890625 -3.34375 C 1.941406 -2.59375 2.203125 -2.003906 2.671875 -1.578125 C 3.140625 -1.160156 3.707031 -0.953125 4.375 -0.953125 C 4.925781 -0.953125 5.382812 -1.078125 5.75 -1.328125 C 6.113281 -1.585938 6.367188 -1.929688 6.515625 -2.359375 L 7.890625 -2.359375 C 7.679688 -1.617188 7.269531 -1.019531 6.65625 -0.5625 C 6.050781 -0.101562 5.289062 0.125 4.375 0.125 C 3.65625 0.125 3.007812 -0.0351562 2.4375 -0.359375 C 1.863281 -0.679688 1.410156 -1.140625 1.078125 -1.734375 C 0.753906 -2.335938 0.59375 -3.035156 0.59375 -3.828125 C 0.59375 -4.617188 0.75 -5.3125 1.0625 -5.90625 C 1.382812 -6.5 1.832031 -6.957031 2.40625 -7.28125 C 2.976562 -7.601562 3.632812 -7.765625 4.375 -7.765625 C 5.101562 -7.765625 5.742188 -7.601562 6.296875 -7.28125 C 6.859375 -6.96875 7.289062 -6.535156 7.59375 -5.984375 C 7.894531 -5.429688 8.046875 -4.804688 8.046875 -4.109375 Z M 6.734375 -4.375 C 6.734375 -4.851562 6.625 -5.265625 6.40625 -5.609375 C 6.195312 -5.960938 5.90625 -6.226562 5.53125 -6.40625 C 5.164062 -6.59375 4.765625 -6.6875 4.328125 -6.6875 C 3.679688 -6.6875 3.128906 -6.484375 2.671875 -6.078125 C 2.222656 -5.671875 1.96875 -5.101562 1.90625 -4.375 Z M 6.734375 -4.375 "/></g></g></g><g fill="#ffffff" fill-opacity="1"><g transform="translate(63.48583, 72.503783)"><g><path d="M 2.34375 -6.21875 C 2.601562 -6.675781 2.984375 -7.046875 3.484375 -7.328125 C 3.984375 -7.617188 4.554688 -7.765625 5.203125 -7.765625 C 5.890625 -7.765625 6.503906 -7.597656 7.046875 -7.265625 C 7.597656 -6.941406 8.03125 -6.484375 8.34375 -5.890625 C 8.664062 -5.304688 8.828125 -4.625 8.828125 -3.84375 C 8.828125 -3.070312 8.664062 -2.382812 8.34375 -1.78125 C 8.03125 -1.175781 7.597656 -0.707031 7.046875 -0.375 C 6.492188 -0.0390625 5.878906 0.125 5.203125 0.125 C 4.535156 0.125 3.953125 -0.015625 3.453125 -0.296875 C 2.960938 -0.585938 2.59375 -0.957031 2.34375 -1.40625 L 2.34375 0 L 1.078125 0 L 1.078125 -10.3125 L 2.34375 -10.3125 Z M 7.53125 -3.84375 C 7.53125 -4.414062 7.410156 -4.914062 7.171875 -5.34375 C 6.941406 -5.78125 6.628906 -6.109375 6.234375 -6.328125 C 5.835938 -6.546875 5.40625 -6.65625 4.9375 -6.65625 C 4.46875 -6.65625 4.035156 -6.539062 3.640625 -6.3125 C 3.242188 -6.09375 2.925781 -5.765625 2.6875 -5.328125 C 2.457031 -4.898438 2.34375 -4.398438 2.34375 -3.828125 C 2.34375 -3.253906 2.457031 -2.75 2.6875 -2.3125 C 2.925781 -1.882812 3.242188 -1.554688 3.640625 -1.328125 C 4.035156 -1.097656 4.46875 -0.984375 4.9375 -0.984375 C 5.40625 -0.984375 5.835938 -1.097656 6.234375 -1.328125 C 6.628906 -1.554688 6.941406 -1.882812 7.171875 -2.3125 C 7.410156 -2.75 7.53125 -3.257812 7.53125 -3.84375 Z M 7.53125 -3.84375 "/></g></g></g><g fill="#ffffff" fill-opacity="1"><g transform="translate(72.903069, 72.503783)"><g/></g></g><g fill="#ffffff" fill-opacity="1"><g transform="translate(76.622595, 72.503783)"><g><path d="M 4.09375 -9.71875 C 5.15625 -9.71875 6.070312 -9.519531 6.84375 -9.125 C 7.625 -8.726562 8.21875 -8.160156 8.625 -7.421875 C 9.039062 -6.691406 9.25 -5.832031 9.25 -4.84375 C 9.25 -3.84375 9.039062 -2.976562 8.625 -2.25 C 8.21875 -1.519531 7.625 -0.960938 6.84375 -0.578125 C 6.070312 -0.191406 5.15625 0 4.09375 0 L 1.078125 0 L 1.078125 -9.71875 Z M 4.09375 -1.046875 C 5.351562 -1.046875 6.3125 -1.375 6.96875 -2.03125 C 7.625 -2.695312 7.953125 -3.632812 7.953125 -4.84375 C 7.953125 -6.039062 7.617188 -6.976562 6.953125 -7.65625 C 6.296875 -8.34375 5.34375 -8.6875 4.09375 -8.6875 L 2.34375 -8.6875 L 2.34375 -1.046875 Z M 4.09375 -1.046875 "/></g></g></g><g fill="#ffffff" fill-opacity="1"><g transform="translate(86.471686, 72.503783)"><g><path d="M 8.046875 -4.109375 C 8.046875 -3.867188 8.03125 -3.613281 8 -3.34375 L 1.890625 -3.34375 C 1.941406 -2.59375 2.203125 -2.003906 2.671875 -1.578125 C 3.140625 -1.160156 3.707031 -0.953125 4.375 -0.953125 C 4.925781 -0.953125 5.382812 -1.078125 5.75 -1.328125 C 6.113281 -1.585938 6.367188 -1.929688 6.515625 -2.359375 L 7.890625 -2.359375 C 7.679688 -1.617188 7.269531 -1.019531 6.65625 -0.5625 C 6.050781 -0.101562 5.289062 0.125 4.375 0.125 C 3.65625 0.125 3.007812 -0.0351562 2.4375 -0.359375 C 1.863281 -0.679688 1.410156 -1.140625 1.078125 -1.734375 C 0.753906 -2.335938 0.59375 -3.035156 0.59375 -3.828125 C 0.59375 -4.617188 0.75 -5.3125 1.0625 -5.90625 C 1.382812 -6.5 1.832031 -6.957031 2.40625 -7.28125 C 2.976562 -7.601562 3.632812 -7.765625 4.375 -7.765625 C 5.101562 -7.765625 5.742188 -7.601562 6.296875 -7.28125 C 6.859375 -6.96875 7.289062 -6.535156 7.59375 -5.984375 C 7.894531 -5.429688 8.046875 -4.804688 8.046875 -4.109375 Z M 6.734375 -4.375 C 6.734375 -4.851562 6.625 -5.265625 6.40625 -5.609375 C 6.195312 -5.960938 5.90625 -6.226562 5.53125 -6.40625 C 5.164062 -6.59375 4.765625 -6.6875 4.328125 -6.6875 C 3.679688 -6.6875 3.128906 -6.484375 2.671875 -6.078125 C 2.222656 -5.671875 1.96875 -5.101562 1.90625 -4.375 Z M 6.734375 -4.375 "/></g></g></g><g fill="#ffffff" fill-opacity="1"><g transform="translate(95.108796, 72.503783)"><g><path d="M 3.78125 0.125 C 3.195312 0.125 2.671875 0.0234375 2.203125 -0.171875 C 1.734375 -0.367188 1.363281 -0.644531 1.09375 -1 C 0.832031 -1.363281 0.6875 -1.78125 0.65625 -2.25 L 1.96875 -2.25 C 2 -1.863281 2.175781 -1.550781 2.5 -1.3125 C 2.820312 -1.070312 3.242188 -0.953125 3.765625 -0.953125 C 4.242188 -0.953125 4.625 -1.054688 4.90625 -1.265625 C 5.1875 -1.484375 5.328125 -1.753906 5.328125 -2.078125 C 5.328125 -2.410156 5.175781 -2.65625 4.875 -2.8125 C 4.582031 -2.976562 4.125 -3.140625 3.5 -3.296875 C 2.925781 -3.453125 2.460938 -3.601562 2.109375 -3.75 C 1.753906 -3.90625 1.445312 -4.132812 1.1875 -4.4375 C 0.9375 -4.738281 0.8125 -5.132812 0.8125 -5.625 C 0.8125 -6.019531 0.925781 -6.378906 1.15625 -6.703125 C 1.382812 -7.023438 1.710938 -7.28125 2.140625 -7.46875 C 2.566406 -7.664062 3.054688 -7.765625 3.609375 -7.765625 C 4.453125 -7.765625 5.132812 -7.550781 5.65625 -7.125 C 6.175781 -6.695312 6.457031 -6.109375 6.5 -5.359375 L 5.21875 -5.359375 C 5.195312 -5.765625 5.039062 -6.085938 4.75 -6.328125 C 4.457031 -6.566406 4.0625 -6.6875 3.5625 -6.6875 C 3.113281 -6.6875 2.753906 -6.585938 2.484375 -6.390625 C 2.210938 -6.203125 2.078125 -5.945312 2.078125 -5.625 C 2.078125 -5.375 2.15625 -5.164062 2.3125 -5 C 2.476562 -4.84375 2.679688 -4.710938 2.921875 -4.609375 C 3.171875 -4.515625 3.515625 -4.410156 3.953125 -4.296875 C 4.503906 -4.140625 4.953125 -3.988281 5.296875 -3.84375 C 5.640625 -3.707031 5.929688 -3.492188 6.171875 -3.203125 C 6.421875 -2.921875 6.550781 -2.546875 6.5625 -2.078125 C 6.5625 -1.660156 6.445312 -1.285156 6.21875 -0.953125 C 5.988281 -0.617188 5.660156 -0.351562 5.234375 -0.15625 C 4.804688 0.03125 4.320312 0.125 3.78125 0.125 Z M 3.78125 0.125 "/></g></g></g><g fill="#ffffff" fill-opacity="1"><g transform="translate(102.380689, 72.503783)"><g><path d="M 1.734375 -8.875 C 1.484375 -8.875 1.273438 -8.957031 1.109375 -9.125 C 0.941406 -9.289062 0.859375 -9.5 0.859375 -9.75 C 0.859375 -9.988281 0.941406 -10.191406 1.109375 -10.359375 C 1.273438 -10.523438 1.484375 -10.609375 1.734375 -10.609375 C 1.960938 -10.609375 2.15625 -10.523438 2.3125 -10.359375 C 2.476562 -10.191406 2.5625 -9.988281 2.5625 -9.75 C 2.5625 -9.5 2.476562 -9.289062 2.3125 -9.125 C 2.15625 -8.957031 1.960938 -8.875 1.734375 -8.875 Z M 2.34375 -7.640625 L 2.34375 0 L 1.078125 0 L 1.078125 -7.640625 Z M 2.34375 -7.640625 "/></g></g></g><g fill="#ffffff" fill-opacity="1"><g transform="translate(105.807666, 72.503783)"><g><path d="M 4.21875 -7.765625 C 4.882812 -7.765625 5.460938 -7.617188 5.953125 -7.328125 C 6.453125 -7.046875 6.820312 -6.6875 7.0625 -6.25 L 7.0625 -7.640625 L 8.34375 -7.640625 L 8.34375 0.171875 C 8.34375 0.867188 8.191406 1.488281 7.890625 2.03125 C 7.597656 2.570312 7.175781 2.992188 6.625 3.296875 C 6.070312 3.609375 5.429688 3.765625 4.703125 3.765625 C 3.691406 3.765625 2.851562 3.523438 2.1875 3.046875 C 1.519531 2.578125 1.125 1.929688 1 1.109375 L 2.265625 1.109375 C 2.398438 1.578125 2.6875 1.953125 3.125 2.234375 C 3.5625 2.515625 4.085938 2.65625 4.703125 2.65625 C 5.398438 2.65625 5.96875 2.4375 6.40625 2 C 6.84375 1.570312 7.0625 0.960938 7.0625 0.171875 L 7.0625 -1.4375 C 6.8125 -0.988281 6.441406 -0.613281 5.953125 -0.3125 C 5.460938 -0.0195312 4.882812 0.125 4.21875 0.125 C 3.539062 0.125 2.925781 -0.0390625 2.375 -0.375 C 1.820312 -0.707031 1.382812 -1.175781 1.0625 -1.78125 C 0.75 -2.382812 0.59375 -3.070312 0.59375 -3.84375 C 0.59375 -4.625 0.75 -5.304688 1.0625 -5.890625 C 1.382812 -6.484375 1.820312 -6.941406 2.375 -7.265625 C 2.925781 -7.597656 3.539062 -7.765625 4.21875 -7.765625 Z M 7.0625 -3.828125 C 7.0625 -4.410156 6.945312 -4.914062 6.71875 -5.34375 C 6.488281 -5.769531 6.175781 -6.09375 5.78125 -6.3125 C 5.382812 -6.539062 4.945312 -6.65625 4.46875 -6.65625 C 4 -6.65625 3.566406 -6.546875 3.171875 -6.328125 C 2.785156 -6.109375 2.472656 -5.78125 2.234375 -5.34375 C 2.003906 -4.914062 1.890625 -4.414062 1.890625 -3.84375 C 1.890625 -3.257812 2.003906 -2.75 2.234375 -2.3125 C 2.472656 -1.882812 2.785156 -1.554688 3.171875 -1.328125 C 3.566406 -1.097656 4 -0.984375 4.46875 -0.984375 C 4.945312 -0.984375 5.382812 -1.097656 5.78125 -1.328125 C 6.175781 -1.554688 6.488281 -1.882812 6.71875 -2.3125 C 6.945312 -2.75 7.0625 -3.253906 7.0625 -3.828125 Z M 7.0625 -3.828125 "/></g></g></g><g fill="#ffffff" fill-opacity="1"><g transform="translate(115.224905, 72.503783)"><g><path d="M 4.796875 -7.78125 C 5.722656 -7.78125 6.472656 -7.5 7.046875 -6.9375 C 7.628906 -6.375 7.921875 -5.5625 7.921875 -4.5 L 7.921875 0 L 6.65625 0 L 6.65625 -4.328125 C 6.65625 -5.085938 6.460938 -5.664062 6.078125 -6.0625 C 5.703125 -6.46875 5.1875 -6.671875 4.53125 -6.671875 C 3.863281 -6.671875 3.332031 -6.460938 2.9375 -6.046875 C 2.539062 -5.628906 2.34375 -5.019531 2.34375 -4.21875 L 2.34375 0 L 1.078125 0 L 1.078125 -7.640625 L 2.34375 -7.640625 L 2.34375 -6.546875 C 2.59375 -6.941406 2.929688 -7.242188 3.359375 -7.453125 C 3.796875 -7.671875 4.273438 -7.78125 4.796875 -7.78125 Z M 4.796875 -7.78125 "/></g></g></g><g fill="#ffffff" fill-opacity="1"><g transform="translate(124.148766, 72.503783)"><g/></g></g><g fill="#ffffff" fill-opacity="1"><g transform="translate(24.264567, 46.771058)"><g><path d="M 21.984375 0 L 16.53125 0 L 7.421875 -13.796875 L 7.421875 0 L 1.96875 0 L 1.96875 -22.359375 L 7.421875 -22.359375 L 16.53125 -8.5 L 16.53125 -22.359375 L 21.984375 -22.359375 Z M 21.984375 0 "/></g></g></g><g fill="#ffffff" fill-opacity="1"><g transform="translate(48.217139, 46.771058)"><g><path d="M 20.140625 -17.78125 L 8.984375 8.4375 L 3.125 8.4375 L 7.203125 -0.609375 L -0.03125 -17.78125 L 6.046875 -17.78125 L 10.15625 -6.65625 L 14.234375 -17.78125 Z M 20.140625 -17.78125 "/></g></g></g><g fill="#ffffff" fill-opacity="1"><g transform="translate(68.34749, 46.771058)"><g><path d="M 7.421875 -15.265625 C 7.929688 -16.085938 8.664062 -16.753906 9.625 -17.265625 C 10.582031 -17.773438 11.675781 -18.03125 12.90625 -18.03125 C 14.363281 -18.03125 15.6875 -17.65625 16.875 -16.90625 C 18.070312 -16.164062 19.015625 -15.101562 19.703125 -13.71875 C 20.390625 -12.34375 20.734375 -10.742188 20.734375 -8.921875 C 20.734375 -7.097656 20.390625 -5.488281 19.703125 -4.09375 C 19.015625 -2.695312 18.070312 -1.625 16.875 -0.875 C 15.6875 -0.125 14.363281 0.25 12.90625 0.25 C 11.644531 0.25 10.546875 0 9.609375 -0.5 C 8.679688 -1 7.953125 -1.660156 7.421875 -2.484375 L 7.421875 0 L 1.96875 0 L 1.96875 -23.578125 L 7.421875 -23.578125 Z M 15.203125 -8.921875 C 15.203125 -10.273438 14.820312 -11.335938 14.0625 -12.109375 C 13.3125 -12.890625 12.382812 -13.28125 11.28125 -13.28125 C 10.195312 -13.28125 9.273438 -12.882812 8.515625 -12.09375 C 7.765625 -11.3125 7.390625 -10.242188 7.390625 -8.890625 C 7.390625 -7.523438 7.765625 -6.445312 8.515625 -5.65625 C 9.273438 -4.875 10.195312 -4.484375 11.28125 -4.484375 C 12.363281 -4.484375 13.285156 -4.878906 14.046875 -5.671875 C 14.816406 -6.472656 15.203125 -7.554688 15.203125 -8.921875 Z M 15.203125 -8.921875 "/></g></g></g><g fill="#ffffff" fill-opacity="1"><g transform="translate(89.974875, 46.771058)"><g><path d="M 18.734375 -9.171875 C 18.734375 -8.660156 18.703125 -8.128906 18.640625 -7.578125 L 6.3125 -7.578125 C 6.394531 -6.472656 6.75 -5.628906 7.375 -5.046875 C 8 -4.460938 8.769531 -4.171875 9.6875 -4.171875 C 11.039062 -4.171875 11.984375 -4.742188 12.515625 -5.890625 L 18.3125 -5.890625 C 18.019531 -4.722656 17.484375 -3.671875 16.703125 -2.734375 C 15.929688 -1.804688 14.960938 -1.078125 13.796875 -0.546875 C 12.628906 -0.015625 11.320312 0.25 9.875 0.25 C 8.132812 0.25 6.582031 -0.117188 5.21875 -0.859375 C 3.863281 -1.597656 2.800781 -2.65625 2.03125 -4.03125 C 1.269531 -5.414062 0.890625 -7.035156 0.890625 -8.890625 C 0.890625 -10.734375 1.265625 -12.34375 2.015625 -13.71875 C 2.773438 -15.101562 3.832031 -16.164062 5.1875 -16.90625 C 6.550781 -17.65625 8.113281 -18.03125 9.875 -18.03125 C 11.59375 -18.03125 13.117188 -17.664062 14.453125 -16.9375 C 15.796875 -16.21875 16.84375 -15.191406 17.59375 -13.859375 C 18.351562 -12.523438 18.734375 -10.960938 18.734375 -9.171875 Z M 13.15625 -10.609375 C 13.15625 -11.546875 12.835938 -12.289062 12.203125 -12.84375 C 11.566406 -13.394531 10.769531 -13.671875 9.8125 -13.671875 C 8.894531 -13.671875 8.125 -13.40625 7.5 -12.875 C 6.875 -12.34375 6.488281 -11.585938 6.34375 -10.609375 Z M 13.15625 -10.609375 "/></g></g></g><g fill="#ffffff" fill-opacity="1"><g transform="translate(109.5956, 46.771058)"><g><path d="M 7.421875 -14.8125 C 8.054688 -15.789062 8.851562 -16.5625 9.8125 -17.125 C 10.769531 -17.6875 11.832031 -17.96875 13 -17.96875 L 13 -12.203125 L 11.5 -12.203125 C 10.144531 -12.203125 9.125 -11.910156 8.4375 -11.328125 C 7.757812 -10.742188 7.421875 -9.71875 7.421875 -8.25 L 7.421875 0 L 1.96875 0 L 1.96875 -17.78125 L 7.421875 -17.78125 Z M 7.421875 -14.8125 "/></g></g></g><g fill="#ffffff" fill-opacity="1"><g transform="translate(123.228183, 46.771058)"><g><path d="M 8.734375 -18.03125 C 9.984375 -18.03125 11.078125 -17.773438 12.015625 -17.265625 C 12.960938 -16.753906 13.691406 -16.085938 14.203125 -15.265625 L 14.203125 -17.78125 L 19.65625 -17.78125 L 19.65625 -0.03125 C 19.65625 1.601562 19.332031 3.082031 18.6875 4.40625 C 18.039062 5.738281 17.050781 6.796875 15.71875 7.578125 C 14.394531 8.367188 12.742188 8.765625 10.765625 8.765625 C 8.128906 8.765625 5.992188 8.140625 4.359375 6.890625 C 2.722656 5.648438 1.789062 3.96875 1.5625 1.84375 L 6.953125 1.84375 C 7.117188 2.53125 7.519531 3.066406 8.15625 3.453125 C 8.789062 3.847656 9.578125 4.046875 10.515625 4.046875 C 11.640625 4.046875 12.535156 3.722656 13.203125 3.078125 C 13.867188 2.429688 14.203125 1.394531 14.203125 -0.03125 L 14.203125 -2.546875 C 13.671875 -1.722656 12.9375 -1.050781 12 -0.53125 C 11.070312 -0.0078125 9.984375 0.25 8.734375 0.25 C 7.265625 0.25 5.9375 -0.125 4.75 -0.875 C 3.5625 -1.625 2.617188 -2.695312 1.921875 -4.09375 C 1.234375 -5.488281 0.890625 -7.097656 0.890625 -8.921875 C 0.890625 -10.742188 1.234375 -12.34375 1.921875 -13.71875 C 2.617188 -15.101562 3.5625 -16.164062 4.75 -16.90625 C 5.9375 -17.65625 7.265625 -18.03125 8.734375 -18.03125 Z M 14.203125 -8.890625 C 14.203125 -10.242188 13.828125 -11.3125 13.078125 -12.09375 C 12.328125 -12.882812 11.410156 -13.28125 10.328125 -13.28125 C 9.242188 -13.28125 8.320312 -12.890625 7.5625 -12.109375 C 6.8125 -11.335938 6.4375 -10.273438 6.4375 -8.921875 C 6.4375 -7.554688 6.8125 -6.472656 7.5625 -5.671875 C 8.320312 -4.878906 9.242188 -4.484375 10.328125 -4.484375 C 11.410156 -4.484375 12.328125 -4.875 13.078125 -5.65625 C 13.828125 -6.445312 14.203125 -7.523438 14.203125 -8.890625 Z M 14.203125 -8.890625 "/></g></g></g><g clip-path="url(#b5d98e29c5)"><path fill="#ffffff" d="M 169.296875 36.101562 L 159.984375 26.691406 C 158.183594 24.875 154.492188 28.238281 156.65625 30.351562 L 162.546875 36.101562 L 156.46875 41.753906 C 154.613281 43.476562 158.046875 47.011719 159.886719 45.222656 Z M 169.296875 36.101562 " fill-opacity="1" fill-rule="nonzero"/></g></svg>